<?xml version="1.0" standalone="no"?>
<!DOCTYPE svg PUBLIC "-//W3C//DTD SVG 20010904//EN"
 "http://www.w3.org/TR/2001/REC-SVG-20010904/DTD/svg10.dtd">
<svg version="1.0" xmlns="http://www.w3.org/2000/svg"
 width="512.000000pt" height="512.000000pt" viewBox="0 0 512.000000 512.000000"
 preserveAspectRatio="xMidYMid meet">
<metadata>
Created by potrace 1.11, written by Peter Selinger 2001-2013
</metadata>
<g transform="translate(0.000000,512.000000) scale(0.100000,-0.100000)"
fill="#000000" stroke="none">
<path d="M2414 5010 c-39 -10 -99 -32 -132 -49 -62 -31 -1030 -555 -1234 -668
l-118 -65 0 -379 0 -379 42 21 c45 23 368 196 878 471 477 257 551 295 609
312 70 20 143 20 212 0 52 -15 311 -150 789 -409 336 -182 713 -383 733 -391
16 -6 17 11 17 262 0 148 -3 319 -6 380 l-7 111 -281 154 c-155 84 -301 165
-326 180 -83 50 -765 416 -795 427 -115 44 -265 53 -381 22z"/>
<path d="M43 4584 l-34 -37 3 -721 c4 -803 0 -755 75 -898 35 -68 148 -187
198 -210 20 -9 65 13 369 178 304 166 344 191 328 202 -9 7 -63 38 -120 69
-57 31 -114 68 -128 82 -60 59 -58 46 -64 547 l-5 461 -27 40 c-26 39 -133
112 -424 286 -83 50 -124 50 -171 1z"/>
<path d="M4814 4519 c-275 -165 -310 -192 -339 -261 -13 -32 -15 -101 -15
-460 0 -258 -4 -437 -10 -460 -22 -78 -74 -115 -415 -301 -876 -476 -1313
-705 -1376 -718 -29 -6 -88 -9 -132 -7 -71 4 -89 10 -180 56 l-101 52 -348
-188 c-191 -103 -348 -190 -348 -193 0 -6 163 -98 423 -237 248 -134 381 -167
631 -159 132 4 177 9 253 31 147 41 49 -10 1428 739 583 316 591 321 666 396
56 56 86 97 114 155 l39 79 9 331 c4 182 7 524 5 759 l-3 429 -33 29 c-54 49
-78 42 -268 -72z"/>
<path d="M2389 3481 c-171 -32 -244 -63 -621 -267 -422 -227 -1291 -700 -1412
-768 -177 -98 -265 -197 -318 -356 -22 -64 -22 -76 -26 -788 l-3 -723 34 -34
c59 -59 84 -53 282 68 260 158 282 173 312 218 l28 42 5 461 c4 413 7 464 22
491 24 42 38 58 73 82 54 37 1162 634 1512 814 l183 94 103 0 102 0 111 -54
112 -53 318 172 c370 200 374 202 374 210 0 14 -526 296 -609 327 -137 52
-208 64 -376 68 -88 2 -181 0 -206 -4z"/>
<path d="M4480 2234 c-184 -101 -336 -187 -338 -193 -2 -5 48 -37 110 -71 129
-71 159 -96 188 -156 19 -42 20 -62 20 -482 l0 -439 23 -44 c30 -57 63 -81
300 -222 228 -136 252 -143 306 -82 l31 36 0 705 c0 776 1 763 -62 891 -36 73
-119 168 -185 212 -25 17 -49 31 -52 30 -3 -1 -157 -84 -341 -185z"/>
<path d="M926 1557 c-4 -56 -3 -227 1 -381 l8 -279 315 -171 c643 -351 947
-516 1024 -555 142 -72 299 -90 451 -51 80 21 82 21 1218 638 l267 145 -1 296
c-1 163 -4 333 -7 377 l-7 82 -130 -70 c-71 -39 -240 -130 -375 -203 -530
-288 -941 -505 -982 -518 -68 -23 -151 -29 -220 -17 -81 15 -151 51 -1475 766
l-81 44 -6 -103z"/>
</g>
</svg>
